<mxfile host="Electron" agent="Mozilla/5.0 (Windows NT 10.0; Win64; x64) AppleWebKit/537.36 (KHTML, like Gecko) draw.io/27.0.5 Chrome/134.0.6998.205 Electron/35.3.0 Safari/537.36" version="27.0.5">
  <diagram name="Page-1" id="qD4dpsAiRc_fLkRLtmph">
    <mxGraphModel dx="1042" dy="634" grid="1" gridSize="10" guides="1" tooltips="1" connect="1" arrows="1" fold="1" page="1" pageScale="1" pageWidth="1100" pageHeight="850" math="0" shadow="0">
      <root>
        <mxCell id="0" />
        <mxCell id="1" parent="0" />
        <mxCell id="merBDp5Z0AqTk0g_Nte9-50" value="" style="endArrow=none;html=1;rounded=0;" parent="1" edge="1">
          <mxGeometry width="50" height="50" relative="1" as="geometry">
            <mxPoint x="53.5" y="130" as="sourcePoint" />
            <mxPoint x="1020" y="130" as="targetPoint" />
          </mxGeometry>
        </mxCell>
        <mxCell id="merBDp5Z0AqTk0g_Nte9-57" value="&lt;b&gt;&lt;font style=&quot;font-size: 42px;&quot;&gt;Data Model - Star Schema&lt;/font&gt;&lt;/b&gt;" style="text;html=1;align=center;verticalAlign=middle;resizable=0;points=[];autosize=1;strokeColor=none;fillColor=none;" parent="1" vertex="1">
          <mxGeometry x="53.5" y="63" width="540" height="60" as="geometry" />
        </mxCell>
        <mxCell id="merBDp5Z0AqTk0g_Nte9-58" value="&lt;font style=&quot;font-size: 17px;&quot;&gt;@ParthTailor&lt;/font&gt;" style="text;html=1;align=center;verticalAlign=middle;resizable=0;points=[];autosize=1;strokeColor=none;fillColor=none;" parent="1" vertex="1">
          <mxGeometry x="880" y="93" width="120" height="30" as="geometry" />
        </mxCell>
        <mxCell id="-Ro3d89DTqJSnpWTTzYj-32" value="" style="rounded=1;whiteSpace=wrap;html=1;fillColor=#FAEFFF;" vertex="1" parent="1">
          <mxGeometry x="100" y="180" width="220" height="390" as="geometry" />
        </mxCell>
        <mxCell id="-Ro3d89DTqJSnpWTTzYj-33" value="&lt;font style=&quot;font-size: 20px;&quot;&gt;&lt;b style=&quot;&quot;&gt;gold.dim_customers&lt;/b&gt;&lt;/font&gt;" style="rounded=1;whiteSpace=wrap;html=1;fillColor=#e1d5e7;strokeColor=#9673a6;" vertex="1" parent="1">
          <mxGeometry x="100" y="180" width="220" height="50" as="geometry" />
        </mxCell>
        <mxCell id="-Ro3d89DTqJSnpWTTzYj-34" value="" style="endArrow=none;html=1;rounded=0;" edge="1" parent="1">
          <mxGeometry width="50" height="50" relative="1" as="geometry">
            <mxPoint x="150" y="230.00260869565216" as="sourcePoint" />
            <mxPoint x="150" y="570" as="targetPoint" />
          </mxGeometry>
        </mxCell>
        <mxCell id="-Ro3d89DTqJSnpWTTzYj-38" value="" style="endArrow=none;html=1;rounded=0;entryX=1;entryY=0.222;entryDx=0;entryDy=0;entryPerimeter=0;exitX=0.011;exitY=0.226;exitDx=0;exitDy=0;exitPerimeter=0;" edge="1" parent="1" source="-Ro3d89DTqJSnpWTTzYj-32" target="-Ro3d89DTqJSnpWTTzYj-32">
          <mxGeometry width="50" height="50" relative="1" as="geometry">
            <mxPoint x="110" y="280" as="sourcePoint" />
            <mxPoint x="330" y="280" as="targetPoint" />
          </mxGeometry>
        </mxCell>
        <mxCell id="-Ro3d89DTqJSnpWTTzYj-39" value="&lt;font style=&quot;font-size: 16px;&quot;&gt;&lt;b&gt;PK&lt;/b&gt;&lt;/font&gt;" style="text;strokeColor=none;fillColor=none;spacingLeft=4;spacingRight=4;overflow=hidden;rotatable=0;points=[[0,0.5],[1,0.5]];portConstraint=eastwest;fontSize=12;whiteSpace=wrap;html=1;" vertex="1" parent="1">
          <mxGeometry x="110" y="240" width="40" height="30" as="geometry" />
        </mxCell>
        <mxCell id="-Ro3d89DTqJSnpWTTzYj-40" value="" style="rounded=1;whiteSpace=wrap;html=1;fillColor=#FFFEF0;strokeColor=#d6b656;" vertex="1" parent="1">
          <mxGeometry x="450" y="180" width="210" height="340" as="geometry" />
        </mxCell>
        <mxCell id="-Ro3d89DTqJSnpWTTzYj-41" value="&lt;font style=&quot;font-size: 20px;&quot;&gt;&lt;b style=&quot;&quot;&gt;gold.fact_customers&lt;/b&gt;&lt;/font&gt;" style="rounded=1;whiteSpace=wrap;html=1;fillColor=#fff2cc;strokeColor=#d6b656;" vertex="1" parent="1">
          <mxGeometry x="450" y="180" width="210" height="50" as="geometry" />
        </mxCell>
        <mxCell id="-Ro3d89DTqJSnpWTTzYj-42" value="" style="endArrow=none;html=1;rounded=0;" edge="1" parent="1">
          <mxGeometry width="50" height="50" relative="1" as="geometry">
            <mxPoint x="500" y="230.00260869565216" as="sourcePoint" />
            <mxPoint x="500" y="520" as="targetPoint" />
          </mxGeometry>
        </mxCell>
        <mxCell id="-Ro3d89DTqJSnpWTTzYj-45" value="" style="rounded=1;whiteSpace=wrap;html=1;fillColor=#FAEFFF;strokeColor=#9673a6;" vertex="1" parent="1">
          <mxGeometry x="790" y="180" width="200" height="410" as="geometry" />
        </mxCell>
        <mxCell id="-Ro3d89DTqJSnpWTTzYj-46" value="&lt;font style=&quot;font-size: 20px;&quot;&gt;&lt;b style=&quot;&quot;&gt;gold.dim_products&lt;/b&gt;&lt;/font&gt;" style="rounded=1;whiteSpace=wrap;html=1;fillColor=#e1d5e7;strokeColor=#9673a6;" vertex="1" parent="1">
          <mxGeometry x="790" y="180" width="200" height="50" as="geometry" />
        </mxCell>
        <mxCell id="-Ro3d89DTqJSnpWTTzYj-47" value="" style="endArrow=none;html=1;rounded=0;" edge="1" parent="1">
          <mxGeometry width="50" height="50" relative="1" as="geometry">
            <mxPoint x="840" y="230.00260869565216" as="sourcePoint" />
            <mxPoint x="840" y="590" as="targetPoint" />
          </mxGeometry>
        </mxCell>
        <mxCell id="-Ro3d89DTqJSnpWTTzYj-49" value="&lt;font style=&quot;font-size: 16px;&quot;&gt;&lt;b&gt;PK&lt;/b&gt;&lt;/font&gt;" style="text;strokeColor=none;fillColor=none;spacingLeft=4;spacingRight=4;overflow=hidden;rotatable=0;points=[[0,0.5],[1,0.5]];portConstraint=eastwest;fontSize=12;whiteSpace=wrap;html=1;" vertex="1" parent="1">
          <mxGeometry x="800" y="240" width="40" height="30" as="geometry" />
        </mxCell>
        <mxCell id="-Ro3d89DTqJSnpWTTzYj-51" value="&lt;u&gt;&lt;b&gt;&lt;font style=&quot;font-size: 16px;&quot;&gt;customer_key&lt;/font&gt;&lt;/b&gt;&lt;/u&gt;" style="text;strokeColor=none;fillColor=none;spacingLeft=4;spacingRight=4;overflow=hidden;rotatable=0;points=[[0,0.5],[1,0.5]];portConstraint=eastwest;fontSize=12;whiteSpace=wrap;html=1;" vertex="1" parent="1">
          <mxGeometry x="155" y="240" width="140" height="30" as="geometry" />
        </mxCell>
        <mxCell id="-Ro3d89DTqJSnpWTTzYj-52" value="&lt;span style=&quot;&quot;&gt;&lt;font style=&quot;font-size: 16px;&quot;&gt;customer_id&lt;/font&gt;&lt;/span&gt;" style="text;strokeColor=none;fillColor=none;spacingLeft=4;spacingRight=4;overflow=hidden;rotatable=0;points=[[0,0.5],[1,0.5]];portConstraint=eastwest;fontSize=12;whiteSpace=wrap;html=1;fontStyle=0" vertex="1" parent="1">
          <mxGeometry x="155" y="290" width="185" height="30" as="geometry" />
        </mxCell>
        <mxCell id="-Ro3d89DTqJSnpWTTzYj-79" value="&lt;span style=&quot;&quot;&gt;&lt;font style=&quot;font-size: 16px;&quot;&gt;customer_number&lt;/font&gt;&lt;/span&gt;" style="text;strokeColor=none;fillColor=none;spacingLeft=4;spacingRight=4;overflow=hidden;rotatable=0;points=[[0,0.5],[1,0.5]];portConstraint=eastwest;fontSize=12;whiteSpace=wrap;html=1;fontStyle=0" vertex="1" parent="1">
          <mxGeometry x="155" y="320" width="185" height="30" as="geometry" />
        </mxCell>
        <mxCell id="-Ro3d89DTqJSnpWTTzYj-80" value="&lt;span style=&quot;&quot;&gt;&lt;font style=&quot;font-size: 16px;&quot;&gt;first_name&lt;/font&gt;&lt;/span&gt;" style="text;strokeColor=none;fillColor=none;spacingLeft=4;spacingRight=4;overflow=hidden;rotatable=0;points=[[0,0.5],[1,0.5]];portConstraint=eastwest;fontSize=12;whiteSpace=wrap;html=1;fontStyle=0" vertex="1" parent="1">
          <mxGeometry x="155" y="350" width="185" height="30" as="geometry" />
        </mxCell>
        <mxCell id="-Ro3d89DTqJSnpWTTzYj-84" value="&lt;span style=&quot;&quot;&gt;&lt;font style=&quot;font-size: 16px;&quot;&gt;last_name&lt;/font&gt;&lt;/span&gt;" style="text;strokeColor=none;fillColor=none;spacingLeft=4;spacingRight=4;overflow=hidden;rotatable=0;points=[[0,0.5],[1,0.5]];portConstraint=eastwest;fontSize=12;whiteSpace=wrap;html=1;fontStyle=0" vertex="1" parent="1">
          <mxGeometry x="155" y="380" width="185" height="30" as="geometry" />
        </mxCell>
        <mxCell id="-Ro3d89DTqJSnpWTTzYj-85" value="&lt;span style=&quot;&quot;&gt;&lt;font style=&quot;font-size: 16px;&quot;&gt;country&lt;/font&gt;&lt;/span&gt;" style="text;strokeColor=none;fillColor=none;spacingLeft=4;spacingRight=4;overflow=hidden;rotatable=0;points=[[0,0.5],[1,0.5]];portConstraint=eastwest;fontSize=12;whiteSpace=wrap;html=1;fontStyle=0" vertex="1" parent="1">
          <mxGeometry x="155" y="410" width="185" height="30" as="geometry" />
        </mxCell>
        <mxCell id="-Ro3d89DTqJSnpWTTzYj-86" value="&lt;span style=&quot;&quot;&gt;&lt;font style=&quot;font-size: 16px;&quot;&gt;marital_status&lt;/font&gt;&lt;/span&gt;" style="text;strokeColor=none;fillColor=none;spacingLeft=4;spacingRight=4;overflow=hidden;rotatable=0;points=[[0,0.5],[1,0.5]];portConstraint=eastwest;fontSize=12;whiteSpace=wrap;html=1;fontStyle=0" vertex="1" parent="1">
          <mxGeometry x="155" y="440" width="185" height="30" as="geometry" />
        </mxCell>
        <mxCell id="-Ro3d89DTqJSnpWTTzYj-87" value="&lt;span style=&quot;&quot;&gt;&lt;font style=&quot;font-size: 16px;&quot;&gt;gender&lt;/font&gt;&lt;/span&gt;" style="text;strokeColor=none;fillColor=none;spacingLeft=4;spacingRight=4;overflow=hidden;rotatable=0;points=[[0,0.5],[1,0.5]];portConstraint=eastwest;fontSize=12;whiteSpace=wrap;html=1;fontStyle=0" vertex="1" parent="1">
          <mxGeometry x="155" y="470" width="185" height="30" as="geometry" />
        </mxCell>
        <mxCell id="-Ro3d89DTqJSnpWTTzYj-88" value="&lt;span style=&quot;&quot;&gt;&lt;font style=&quot;font-size: 16px;&quot;&gt;birthdate&lt;/font&gt;&lt;/span&gt;" style="text;strokeColor=none;fillColor=none;spacingLeft=4;spacingRight=4;overflow=hidden;rotatable=0;points=[[0,0.5],[1,0.5]];portConstraint=eastwest;fontSize=12;whiteSpace=wrap;html=1;fontStyle=0" vertex="1" parent="1">
          <mxGeometry x="155" y="500" width="185" height="30" as="geometry" />
        </mxCell>
        <mxCell id="-Ro3d89DTqJSnpWTTzYj-89" value="&lt;span style=&quot;&quot;&gt;&lt;font style=&quot;font-size: 16px;&quot;&gt;country&lt;/font&gt;&lt;/span&gt;" style="text;strokeColor=none;fillColor=none;spacingLeft=4;spacingRight=4;overflow=hidden;rotatable=0;points=[[0,0.5],[1,0.5]];portConstraint=eastwest;fontSize=12;whiteSpace=wrap;html=1;fontStyle=0" vertex="1" parent="1">
          <mxGeometry x="155" y="530" width="185" height="30" as="geometry" />
        </mxCell>
        <mxCell id="-Ro3d89DTqJSnpWTTzYj-90" value="&lt;span style=&quot;&quot;&gt;&lt;font style=&quot;font-size: 16px;&quot;&gt;&lt;b&gt;customer_key&lt;/b&gt;&lt;/font&gt;&lt;/span&gt;" style="text;strokeColor=none;fillColor=none;spacingLeft=4;spacingRight=4;overflow=hidden;rotatable=0;points=[[0,0.5],[1,0.5]];portConstraint=eastwest;fontSize=12;whiteSpace=wrap;html=1;fontStyle=0" vertex="1" parent="1">
          <mxGeometry x="500" y="290" width="185" height="30" as="geometry" />
        </mxCell>
        <mxCell id="-Ro3d89DTqJSnpWTTzYj-91" value="&lt;span style=&quot;&quot;&gt;&lt;font style=&quot;font-size: 16px;&quot;&gt;order_date&lt;/font&gt;&lt;/span&gt;" style="text;strokeColor=none;fillColor=none;spacingLeft=4;spacingRight=4;overflow=hidden;rotatable=0;points=[[0,0.5],[1,0.5]];portConstraint=eastwest;fontSize=12;whiteSpace=wrap;html=1;fontStyle=0" vertex="1" parent="1">
          <mxGeometry x="500" y="320" width="185" height="30" as="geometry" />
        </mxCell>
        <mxCell id="-Ro3d89DTqJSnpWTTzYj-92" value="&lt;span style=&quot;&quot;&gt;&lt;font style=&quot;font-size: 16px;&quot;&gt;shipping_date&lt;/font&gt;&lt;/span&gt;" style="text;strokeColor=none;fillColor=none;spacingLeft=4;spacingRight=4;overflow=hidden;rotatable=0;points=[[0,0.5],[1,0.5]];portConstraint=eastwest;fontSize=12;whiteSpace=wrap;html=1;fontStyle=0" vertex="1" parent="1">
          <mxGeometry x="500" y="350" width="185" height="30" as="geometry" />
        </mxCell>
        <mxCell id="-Ro3d89DTqJSnpWTTzYj-93" value="&lt;span style=&quot;&quot;&gt;&lt;font style=&quot;font-size: 16px;&quot;&gt;due_date&lt;/font&gt;&lt;/span&gt;" style="text;strokeColor=none;fillColor=none;spacingLeft=4;spacingRight=4;overflow=hidden;rotatable=0;points=[[0,0.5],[1,0.5]];portConstraint=eastwest;fontSize=12;whiteSpace=wrap;html=1;fontStyle=0" vertex="1" parent="1">
          <mxGeometry x="500" y="380" width="185" height="30" as="geometry" />
        </mxCell>
        <mxCell id="-Ro3d89DTqJSnpWTTzYj-94" value="&lt;span style=&quot;&quot;&gt;&lt;font style=&quot;font-size: 16px;&quot;&gt;sales_amount&lt;/font&gt;&lt;/span&gt;" style="text;strokeColor=none;fillColor=none;spacingLeft=4;spacingRight=4;overflow=hidden;rotatable=0;points=[[0,0.5],[1,0.5]];portConstraint=eastwest;fontSize=12;whiteSpace=wrap;html=1;fontStyle=0" vertex="1" parent="1">
          <mxGeometry x="500" y="410" width="185" height="30" as="geometry" />
        </mxCell>
        <mxCell id="-Ro3d89DTqJSnpWTTzYj-95" value="&lt;span style=&quot;&quot;&gt;&lt;font style=&quot;font-size: 16px;&quot;&gt;quantity&lt;/font&gt;&lt;/span&gt;" style="text;strokeColor=none;fillColor=none;spacingLeft=4;spacingRight=4;overflow=hidden;rotatable=0;points=[[0,0.5],[1,0.5]];portConstraint=eastwest;fontSize=12;whiteSpace=wrap;html=1;fontStyle=0" vertex="1" parent="1">
          <mxGeometry x="500" y="440" width="185" height="30" as="geometry" />
        </mxCell>
        <mxCell id="-Ro3d89DTqJSnpWTTzYj-96" value="&lt;span style=&quot;font-size: 16px;&quot;&gt;price&lt;/span&gt;" style="text;strokeColor=none;fillColor=none;spacingLeft=4;spacingRight=4;overflow=hidden;rotatable=0;points=[[0,0.5],[1,0.5]];portConstraint=eastwest;fontSize=12;whiteSpace=wrap;html=1;fontStyle=0" vertex="1" parent="1">
          <mxGeometry x="500" y="470" width="185" height="30" as="geometry" />
        </mxCell>
        <mxCell id="-Ro3d89DTqJSnpWTTzYj-99" value="&lt;span style=&quot;&quot;&gt;&lt;font style=&quot;font-size: 16px;&quot;&gt;product_id&lt;/font&gt;&lt;/span&gt;" style="text;strokeColor=none;fillColor=none;spacingLeft=4;spacingRight=4;overflow=hidden;rotatable=0;points=[[0,0.5],[1,0.5]];portConstraint=eastwest;fontSize=12;whiteSpace=wrap;html=1;fontStyle=0" vertex="1" parent="1">
          <mxGeometry x="840" y="280" width="185" height="30" as="geometry" />
        </mxCell>
        <mxCell id="-Ro3d89DTqJSnpWTTzYj-100" value="&lt;span style=&quot;&quot;&gt;&lt;font style=&quot;font-size: 16px;&quot;&gt;product_number&lt;/font&gt;&lt;/span&gt;" style="text;strokeColor=none;fillColor=none;spacingLeft=4;spacingRight=4;overflow=hidden;rotatable=0;points=[[0,0.5],[1,0.5]];portConstraint=eastwest;fontSize=12;whiteSpace=wrap;html=1;fontStyle=0" vertex="1" parent="1">
          <mxGeometry x="840" y="310" width="185" height="30" as="geometry" />
        </mxCell>
        <mxCell id="-Ro3d89DTqJSnpWTTzYj-101" value="&lt;span style=&quot;&quot;&gt;&lt;font style=&quot;font-size: 16px;&quot;&gt;product_name&lt;/font&gt;&lt;/span&gt;" style="text;strokeColor=none;fillColor=none;spacingLeft=4;spacingRight=4;overflow=hidden;rotatable=0;points=[[0,0.5],[1,0.5]];portConstraint=eastwest;fontSize=12;whiteSpace=wrap;html=1;fontStyle=0" vertex="1" parent="1">
          <mxGeometry x="840" y="340" width="185" height="30" as="geometry" />
        </mxCell>
        <mxCell id="-Ro3d89DTqJSnpWTTzYj-102" value="&lt;span style=&quot;&quot;&gt;&lt;font style=&quot;font-size: 16px;&quot;&gt;category_id&lt;/font&gt;&lt;/span&gt;" style="text;strokeColor=none;fillColor=none;spacingLeft=4;spacingRight=4;overflow=hidden;rotatable=0;points=[[0,0.5],[1,0.5]];portConstraint=eastwest;fontSize=12;whiteSpace=wrap;html=1;fontStyle=0" vertex="1" parent="1">
          <mxGeometry x="840" y="370" width="185" height="30" as="geometry" />
        </mxCell>
        <mxCell id="-Ro3d89DTqJSnpWTTzYj-103" value="&lt;span style=&quot;&quot;&gt;&lt;font style=&quot;font-size: 16px;&quot;&gt;category&lt;/font&gt;&lt;/span&gt;" style="text;strokeColor=none;fillColor=none;spacingLeft=4;spacingRight=4;overflow=hidden;rotatable=0;points=[[0,0.5],[1,0.5]];portConstraint=eastwest;fontSize=12;whiteSpace=wrap;html=1;fontStyle=0" vertex="1" parent="1">
          <mxGeometry x="840" y="400" width="185" height="30" as="geometry" />
        </mxCell>
        <mxCell id="-Ro3d89DTqJSnpWTTzYj-104" value="&lt;span style=&quot;&quot;&gt;&lt;font style=&quot;font-size: 16px;&quot;&gt;subcategory&lt;/font&gt;&lt;/span&gt;" style="text;strokeColor=none;fillColor=none;spacingLeft=4;spacingRight=4;overflow=hidden;rotatable=0;points=[[0,0.5],[1,0.5]];portConstraint=eastwest;fontSize=12;whiteSpace=wrap;html=1;fontStyle=0" vertex="1" parent="1">
          <mxGeometry x="840" y="430" width="185" height="30" as="geometry" />
        </mxCell>
        <mxCell id="-Ro3d89DTqJSnpWTTzYj-108" value="&lt;span style=&quot;&quot;&gt;&lt;font style=&quot;font-size: 16px;&quot;&gt;maintenance&lt;/font&gt;&lt;/span&gt;" style="text;strokeColor=none;fillColor=none;spacingLeft=4;spacingRight=4;overflow=hidden;rotatable=0;points=[[0,0.5],[1,0.5]];portConstraint=eastwest;fontSize=12;whiteSpace=wrap;html=1;fontStyle=0" vertex="1" parent="1">
          <mxGeometry x="840" y="460" width="185" height="30" as="geometry" />
        </mxCell>
        <mxCell id="-Ro3d89DTqJSnpWTTzYj-109" value="&lt;span style=&quot;&quot;&gt;&lt;font style=&quot;font-size: 16px;&quot;&gt;cost&lt;/font&gt;&lt;/span&gt;" style="text;strokeColor=none;fillColor=none;spacingLeft=4;spacingRight=4;overflow=hidden;rotatable=0;points=[[0,0.5],[1,0.5]];portConstraint=eastwest;fontSize=12;whiteSpace=wrap;html=1;fontStyle=0" vertex="1" parent="1">
          <mxGeometry x="840" y="490" width="185" height="30" as="geometry" />
        </mxCell>
        <mxCell id="-Ro3d89DTqJSnpWTTzYj-110" value="&lt;span style=&quot;&quot;&gt;&lt;font style=&quot;font-size: 16px;&quot;&gt;product_line&lt;/font&gt;&lt;/span&gt;" style="text;strokeColor=none;fillColor=none;spacingLeft=4;spacingRight=4;overflow=hidden;rotatable=0;points=[[0,0.5],[1,0.5]];portConstraint=eastwest;fontSize=12;whiteSpace=wrap;html=1;fontStyle=0" vertex="1" parent="1">
          <mxGeometry x="840" y="520" width="185" height="30" as="geometry" />
        </mxCell>
        <mxCell id="-Ro3d89DTqJSnpWTTzYj-111" value="&lt;span style=&quot;&quot;&gt;&lt;font style=&quot;font-size: 16px;&quot;&gt;order_number&lt;/font&gt;&lt;/span&gt;" style="text;strokeColor=none;fillColor=none;spacingLeft=4;spacingRight=4;overflow=hidden;rotatable=0;points=[[0,0.5],[1,0.5]];portConstraint=eastwest;fontSize=12;whiteSpace=wrap;html=1;fontStyle=0" vertex="1" parent="1">
          <mxGeometry x="500" y="230" width="185" height="30" as="geometry" />
        </mxCell>
        <mxCell id="-Ro3d89DTqJSnpWTTzYj-112" value="&lt;span style=&quot;&quot;&gt;&lt;font style=&quot;font-size: 16px;&quot;&gt;&lt;b&gt;product_key&lt;/b&gt;&lt;/font&gt;&lt;/span&gt;" style="text;strokeColor=none;fillColor=none;spacingLeft=4;spacingRight=4;overflow=hidden;rotatable=0;points=[[0,0.5],[1,0.5]];portConstraint=eastwest;fontSize=12;whiteSpace=wrap;html=1;fontStyle=0" vertex="1" parent="1">
          <mxGeometry x="500" y="260" width="160" height="30" as="geometry" />
        </mxCell>
        <mxCell id="-Ro3d89DTqJSnpWTTzYj-114" value="&lt;font style=&quot;font-size: 16px;&quot;&gt;&lt;b&gt;FK&lt;/b&gt;&lt;/font&gt;" style="text;strokeColor=none;fillColor=none;spacingLeft=4;spacingRight=4;overflow=hidden;rotatable=0;points=[[0,0.5],[1,0.5]];portConstraint=eastwest;fontSize=12;whiteSpace=wrap;html=1;" vertex="1" parent="1">
          <mxGeometry x="460" y="260" width="40" height="30" as="geometry" />
        </mxCell>
        <mxCell id="-Ro3d89DTqJSnpWTTzYj-115" value="&lt;font style=&quot;font-size: 16px;&quot;&gt;&lt;b&gt;FK&lt;/b&gt;&lt;/font&gt;" style="text;strokeColor=none;fillColor=none;spacingLeft=4;spacingRight=4;overflow=hidden;rotatable=0;points=[[0,0.5],[1,0.5]];portConstraint=eastwest;fontSize=12;whiteSpace=wrap;html=1;" vertex="1" parent="1">
          <mxGeometry x="460" y="290" width="40" height="30" as="geometry" />
        </mxCell>
        <mxCell id="-Ro3d89DTqJSnpWTTzYj-116" value="" style="endArrow=none;html=1;rounded=0;exitX=0.011;exitY=0.226;exitDx=0;exitDy=0;exitPerimeter=0;" edge="1" parent="1">
          <mxGeometry width="50" height="50" relative="1" as="geometry">
            <mxPoint x="791.5" y="270" as="sourcePoint" />
            <mxPoint x="990" y="269" as="targetPoint" />
          </mxGeometry>
        </mxCell>
        <mxCell id="-Ro3d89DTqJSnpWTTzYj-117" value="&lt;u&gt;&lt;b&gt;&lt;font style=&quot;font-size: 16px;&quot;&gt;product_key&lt;/font&gt;&lt;/b&gt;&lt;/u&gt;" style="text;strokeColor=none;fillColor=none;spacingLeft=4;spacingRight=4;overflow=hidden;rotatable=0;points=[[0,0.5],[1,0.5]];portConstraint=eastwest;fontSize=12;whiteSpace=wrap;html=1;" vertex="1" parent="1">
          <mxGeometry x="845" y="240" width="140" height="30" as="geometry" />
        </mxCell>
        <mxCell id="-Ro3d89DTqJSnpWTTzYj-120" value="&lt;span style=&quot;&quot;&gt;&lt;font style=&quot;font-size: 16px;&quot;&gt;start_date&lt;/font&gt;&lt;/span&gt;" style="text;strokeColor=none;fillColor=none;spacingLeft=4;spacingRight=4;overflow=hidden;rotatable=0;points=[[0,0.5],[1,0.5]];portConstraint=eastwest;fontSize=12;whiteSpace=wrap;html=1;fontStyle=0" vertex="1" parent="1">
          <mxGeometry x="840" y="550" width="185" height="30" as="geometry" />
        </mxCell>
        <mxCell id="-Ro3d89DTqJSnpWTTzYj-121" value="" style="edgeStyle=entityRelationEdgeStyle;fontSize=12;html=1;endArrow=ERzeroToMany;startArrow=ERmandOne;rounded=0;entryX=-0.015;entryY=0.376;entryDx=0;entryDy=0;entryPerimeter=0;" edge="1" parent="1" target="-Ro3d89DTqJSnpWTTzYj-40">
          <mxGeometry width="100" height="100" relative="1" as="geometry">
            <mxPoint x="320" y="255" as="sourcePoint" />
            <mxPoint x="420" y="155" as="targetPoint" />
          </mxGeometry>
        </mxCell>
        <mxCell id="-Ro3d89DTqJSnpWTTzYj-124" value="" style="edgeStyle=entityRelationEdgeStyle;fontSize=12;html=1;endArrow=ERzeroToMany;startArrow=ERmandOne;rounded=0;exitX=-0.008;exitY=0.168;exitDx=0;exitDy=0;exitPerimeter=0;" edge="1" parent="1" source="-Ro3d89DTqJSnpWTTzYj-45" target="-Ro3d89DTqJSnpWTTzYj-112">
          <mxGeometry width="100" height="100" relative="1" as="geometry">
            <mxPoint x="800" y="260" as="sourcePoint" />
            <mxPoint x="695.8" y="279.97" as="targetPoint" />
            <Array as="points">
              <mxPoint x="560.8" y="654.97" />
              <mxPoint x="540.8" y="644.97" />
              <mxPoint x="620.8" y="654.97" />
            </Array>
          </mxGeometry>
        </mxCell>
      </root>
    </mxGraphModel>
  </diagram>
</mxfile>
